<svg width="31" height="30" viewBox="0 0 31 30" fill="none" xmlns="http://www.w3.org/2000/svg">
<path d="M0.867188 15.0182C0.868933 22.3973 6.23479 28.6802 13.5227 29.8367V19.3532H9.71719V15.0182H13.5272V11.7182C13.3569 10.1545 13.891 8.59609 14.9846 7.4656C16.0783 6.33511 17.6182 5.74972 19.1867 5.8682C20.3125 5.88638 21.4355 5.98665 22.5467 6.1682V9.8567H20.6507C19.998 9.77121 19.3417 9.98679 18.8668 10.4427C18.392 10.8986 18.1498 11.5455 18.2087 12.2012V15.0182H22.3652L21.7007 19.3547H18.2087V29.8367C26.0904 28.5911 31.6173 21.3929 30.7854 13.4568C29.9536 5.52076 23.0541 -0.374903 15.0854 0.0409708C7.11673 0.456845 0.868454 7.03867 0.867188 15.0182Z" fill="#ECC770"/>
</svg>
