<svg width="31" height="31" viewBox="0 0 31 31" fill="none" xmlns="http://www.w3.org/2000/svg">
<path d="M15.8672 30.0834C11.7672 30.0834 11.2839 30.0618 9.68385 29.9918C8.43614 29.9507 7.20458 29.6971 6.04219 29.2418C4.03104 28.4591 2.44076 26.8682 1.65885 24.8568C1.22103 23.6902 0.984884 22.4576 0.960521 21.2118C0.867188 19.6151 0.867188 19.0918 0.867188 15.0234C0.867188 10.9118 0.888854 10.4318 0.960521 8.8401C0.985417 7.59597 1.22156 6.36512 1.65885 5.2001C2.43991 3.18599 4.03277 1.59372 6.04719 0.813438C7.21159 0.373775 8.44276 0.137011 9.68719 0.113438C11.2789 0.0234375 11.8022 0.0234375 15.8672 0.0234375C20.0005 0.0234375 20.4755 0.0451042 22.0505 0.113438C23.2982 0.137215 24.5326 0.373954 25.7005 0.813438C27.7144 1.59461 29.3069 3.18656 30.0889 5.2001C30.5341 6.38209 30.7715 7.63219 30.7905 8.8951C30.8839 10.4918 30.8839 11.0134 30.8839 15.0801C30.8839 19.1468 30.8605 19.6801 30.7905 21.2584C30.7657 22.5054 30.529 23.7391 30.0905 24.9068C29.3066 26.9196 27.714 28.5111 25.7005 29.2934C24.5343 29.7304 23.3024 29.9665 22.0572 29.9918C20.4655 30.0834 19.9439 30.0834 15.8672 30.0834ZM15.8105 2.66177C11.7339 2.66177 11.3105 2.68177 9.71885 2.75344C8.76883 2.76602 7.82799 2.94134 6.93719 3.27177C5.62178 3.77512 4.5809 4.81176 4.07219 6.1251C3.73921 7.0256 3.56387 7.97674 3.55385 8.93677C3.46552 10.5518 3.46552 10.9751 3.46552 15.0234C3.46552 19.0234 3.48052 19.5084 3.55385 21.1134C3.56877 22.0638 3.74401 23.0048 4.07219 23.8968C4.58165 25.2093 5.62234 26.2451 6.93719 26.7484C7.82738 27.0811 8.76861 27.2565 9.71885 27.2668C11.3322 27.3601 11.7572 27.3601 15.8105 27.3601C19.8989 27.3601 20.3222 27.3401 21.9005 27.2668C22.8512 27.2552 23.7927 27.0799 24.6839 26.7484C25.9913 26.2407 27.0254 25.2073 27.5339 23.9001C27.8662 22.9989 28.0415 22.0473 28.0522 21.0868H28.0705C28.1422 19.4934 28.1422 19.0684 28.1422 14.9968C28.1422 10.9251 28.1239 10.4968 28.0522 8.9051C28.0372 7.95586 27.862 7.01596 27.5339 6.1251C27.0266 4.81606 25.9923 3.78059 24.6839 3.27177C23.7929 2.93967 22.8513 2.76431 21.9005 2.75344C20.2889 2.66177 19.8672 2.66177 15.8105 2.66177ZM15.8672 22.7218C12.7505 22.7238 9.93955 20.848 8.74529 17.9692C7.55103 15.0904 8.2087 11.7757 10.4116 9.57087C12.6144 7.36609 15.9286 6.70556 18.8085 7.89732C21.6883 9.08909 23.5665 11.8984 23.5672 15.0151C23.5626 19.2669 20.119 22.7135 15.8672 22.7218ZM15.8672 10.0118C13.1058 10.0118 10.8672 12.2503 10.8672 15.0118C10.8672 17.7732 13.1058 20.0118 15.8672 20.0118C18.6286 20.0118 20.8672 17.7732 20.8672 15.0118C20.8608 12.253 18.6259 10.0182 15.8672 10.0118ZM23.8672 8.82344C22.8762 8.81976 22.0754 8.01442 22.0772 7.02345C22.079 6.03249 22.8829 5.23012 23.8738 5.23012C24.8648 5.23012 25.6687 6.03247 25.6705 7.02344C25.671 7.50154 25.481 7.96014 25.1426 8.2979C24.8042 8.63566 24.3453 8.82477 23.8672 8.82344Z" fill="#ECC770"/>
</svg>
