<svg width="26" height="31" viewBox="0 0 26 31" fill="none" xmlns="http://www.w3.org/2000/svg">
<path d="M11.8609 30.0301H7.65419C7.44045 30.0422 7.23435 29.9488 7.10252 29.7801C6.96891 29.6089 6.91437 29.3889 6.95252 29.1751C7.01919 28.7734 7.10252 28.2434 7.20752 27.5701C7.26586 27.2001 7.32919 26.7984 7.39752 26.3584C7.60586 25.0251 7.74752 24.1301 7.84252 23.5451C7.8803 23.3106 7.9253 23.0329 7.97752 22.7118V22.6784C8.06308 22.1462 8.16752 21.4995 8.29086 20.7384L8.45752 19.7068V19.6984C8.57752 18.9573 8.67197 18.3679 8.74086 17.9301C8.74852 17.7501 8.83054 17.5814 8.96735 17.4641C9.10416 17.3469 9.28348 17.2917 9.46252 17.3118H11.9959C13.2112 17.3248 14.4244 17.2064 15.6142 16.9584C17.4056 16.6009 19.0674 15.7666 20.4242 14.5434C21.613 13.4013 22.5055 11.9866 23.0242 10.4218C23.2774 9.6948 23.4735 8.94921 23.6109 8.19176C23.6225 8.12176 23.6359 8.08176 23.6525 8.06843C23.6625 8.05557 23.6779 8.04816 23.6942 8.04842H23.7109C23.7474 8.06378 23.7821 8.08336 23.8142 8.10676C24.6887 8.76918 25.2738 9.74355 25.4475 10.8268C25.6447 11.9599 25.6221 13.1205 25.3809 14.2451C25.0652 16.4216 23.9644 18.4074 22.2859 19.8284C20.4316 21.15 18.1849 21.8055 15.9109 21.6884H15.1792C14.9068 21.6861 14.6432 21.7847 14.4392 21.9651C14.2276 22.1487 14.0867 22.4004 14.0409 22.6768L13.9725 23.0001L13.0509 28.7968L13.0159 29.0484C12.9682 29.3277 12.8215 29.5804 12.6025 29.7601C12.3964 29.9374 12.1327 30.0334 11.8609 30.0301ZM5.89752 26.6968H0.955856C0.720039 26.7017 0.494393 26.6008 0.340856 26.4218C0.180827 26.2459 0.1102 26.0063 0.14919 25.7718L4.03419 1.12176C4.08305 0.805502 4.24756 0.51864 4.49586 0.316759C4.73568 0.109949 5.04252 -0.00259889 5.35919 4.55626e-05H15.3825C15.932 0.021746 16.4783 0.0948432 17.0142 0.218426C17.6529 0.339301 18.2794 0.517809 18.8859 0.751759C19.9897 1.14209 20.9469 1.86242 21.6275 2.81509C22.2729 3.78755 22.6034 4.93502 22.5742 6.10176C22.5459 7.45485 22.2861 8.7931 21.8059 10.0584C21.0403 12.5162 19.1627 14.4703 16.7375 15.3334C15.3762 15.7944 13.9497 16.0335 12.5125 16.0418C12.4959 16.0518 11.7792 16.0534 11.0125 16.0534L9.51252 16.0418C8.52304 15.9408 7.63834 16.6593 7.53419 17.6484C7.51252 17.7384 7.00586 20.8934 6.10919 26.5301C6.10923 26.5835 6.08529 26.6342 6.04396 26.6681C6.00263 26.702 5.94827 26.7156 5.89586 26.7051L5.89752 26.6968Z" fill="#ECC770"/>
</svg>
