<svg width="42" height="30" viewBox="0 0 42 30" fill="none" xmlns="http://www.w3.org/2000/svg">
<path d="M20.8764 29.6236H20.8347C20.7055 29.6236 7.78261 29.5986 4.52219 28.7131C2.72932 28.2301 1.32917 26.8292 0.847193 25.0361C0.260898 21.7285 -0.0222213 18.3743 0.00136003 15.0152C-0.0137876 11.6507 0.276993 8.2917 0.87011 4.9798C1.36533 3.18503 2.75934 1.77761 4.54928 1.26522C7.72011 0.431885 20.2868 0.431885 20.8201 0.431885H20.8639C20.9951 0.431885 33.9514 0.456885 37.1784 1.3423C38.9676 1.82774 40.3649 3.22584 40.8493 5.01522C41.4542 8.3351 41.7382 11.7055 41.6972 15.0798C41.7118 18.4403 41.4203 21.7951 40.8264 25.1027C40.3382 26.8936 38.9371 28.2915 37.1451 28.7756C33.9784 29.6152 21.4097 29.6236 20.8764 29.6236ZM16.7097 8.77564L16.6993 21.2756L27.5576 15.0256L16.7097 8.77564Z" fill="#ECC770"/>
</svg>
